 <svg  version="1.0" xmlns="http://www.w3.org/2000/svg"  width="300.000000pt" height="300.000000pt" viewBox="0 0 300.000000 300.000000"  preserveAspectRatio="xMidYMid meet">  <g transform="translate(0.000000,300.000000) scale(0.100000,-0.100000)" fill="#edda02" stroke="none"> <path d="M1461 2600 c-7 -23 -9 -50 -5 -62 4 -14 2 -18 -5 -14 -6 4 -11 0 -11 -9 0 -9 4 -14 9 -10 5 3 12 -4 16 -15 12 -38 28 -22 40 41 5 26 -14 109 -25 109 -4 0 -12 -18 -19 -40z"/> <path d="M1362 2481 c-8 -4 -13 -12 -13 -17 0 -5 -15 -7 -34 -5 -45 3 -95 -42 -95 -87 0 -57 87 -109 117 -69 31 41 -15 98 -53 66 -15 -13 -15 -14 5 -19 26 -6 24 -26 -2 -22 -27 3 -47 26 -37 42 5 8 7 17 4 21 -7 12 38 39 64 39 13 0 33 -5 45 -11 23 -12 62 -49 52 -49 -3 0 -2 -8 4 -17 6 -12 5 -20 -6 -29 -17 -11 -9 -39 8 -29 14 9 11 -11 -3 -22 -7 -6 -20 -11 -28 -11 -8 -1 -26 -3 -40 -6 -14 -3 -40 -7 -59 -10 -18 -3 -39 -10 -45 -15 -7 -6 -21 -12 -32 -14 -28 -6 -58 -19 -65 -30 -8 -12 -76 53 -80 78 -6 28 -24 24 -27 -7 -2 -18 6 -35 26 -56 17 -17 33 -28 36 -25 3 4 6 2 6 -3 0 -5 -19 -18 -42 -29 -42 -20 -198 -167 -198 -187 0 -6 -7 -16 -16 -22 -8 -6 -16 -20 -18 -31 -1 -10 -9 -21 -16 -23 -7 -3 -10 0 -6 6 9 15 -51 62 -79 62 -33 0 -41 -18 -13 -29 30 -12 78 -58 78 -75 0 -7 -3 -16 -7 -20 -5 -4 -8 -11 -9 -14 0 -4 -6 -20 -13 -37 -7 -16 -14 -38 -16 -48 -2 -9 -6 -21 -9 -26 -8 -13 -20 -82 -19 -113 0 -32 -4 -34 -28 -12 -18 17 -44 10 -33 -8 8 -13 -32 -1 -64 19 -56 35 -50 152 8 147 56 -4 55 -4 40 -13 -8 -6 -18 -7 -24 -4 -5 3 -6 1 -2 -5 3 -5 1 -12 -6 -14 -21 -7 8 -58 32 -58 52 0 65 79 19 110 -67 44 -141 -1 -137 -86 0 -24 5 -44 10 -44 4 0 8 -5 8 -11 0 -12 16 -28 50 -51 22 -14 31 -14 64 -3 36 13 37 12 21 -5 -11 -12 -13 -20 -6 -25 6 -3 11 1 11 9 0 9 9 16 20 16 17 0 20 -7 20 -41 l0 -40 -52 1 c-72 2 -89 -5 -118 -47 -26 -37 -36 -83 -25 -112 3 -9 7 -18 7 -21 4 -16 49 -39 76 -38 61 2 92 52 68 109 -10 23 -54 21 -67 -3 -13 -24 -2 -59 16 -52 7 3 16 1 19 -5 7 -10 -24 -24 -45 -19 -24 6 -49 38 -49 63 0 42 28 84 66 100 45 18 44 18 44 0 0 -19 5 -19 35 1 24 16 24 15 23 -13 -2 -37 9 -99 22 -124 6 -10 8 -19 5 -19 -3 0 0 -10 7 -22 7 -13 13 -26 14 -30 1 -5 2 -9 4 -10 1 -2 3 -10 5 -18 2 -8 6 -22 9 -30 8 -19 -40 -76 -67 -81 -30 -6 -18 -24 15 -22 30 1 83 44 71 57 -4 3 -2 6 4 6 5 0 20 -20 33 -44 33 -65 197 -224 237 -230 9 -2 19 -9 21 -17 3 -8 1 -11 -2 -7 -13 11 -55 -33 -62 -64 -9 -41 12 -60 26 -24 5 15 24 41 40 58 29 28 32 29 48 14 10 -8 27 -17 38 -19 10 -1 25 -6 31 -10 13 -8 45 -17 73 -20 8 -1 17 -5 20 -9 3 -4 28 -8 56 -10 32 -2 51 -8 51 -15 0 -7 -6 -13 -14 -13 -7 0 -13 -7 -13 -15 0 -8 7 -15 15 -15 8 0 15 -2 15 -4 0 -13 -31 -75 -44 -85 -26 -21 -79 -24 -106 -4 -30 22 -35 40 -18 61 11 13 11 14 -2 7 -13 -8 -13 -7 -1 8 15 19 46 23 56 7 3 -5 -3 -10 -14 -10 -27 0 -27 -27 -1 -35 39 -12 62 32 37 71 -12 20 -79 9 -99 -16 -20 -25 -23 -78 -5 -100 32 -40 105 -51 140 -22 9 8 17 12 17 9 0 -11 36 28 45 49 4 10 7 29 6 42 -2 14 3 22 13 22 9 0 16 5 16 11 0 6 -8 9 -18 7 -15 -4 -18 -1 -14 18 4 20 10 24 43 24 32 0 39 -4 39 -19 0 -10 -10 -22 -22 -26 l-23 -8 23 -4 c17 -3 22 -10 20 -26 -1 -12 1 -28 5 -34 5 -7 6 -13 3 -13 -8 0 48 -55 56 -55 3 0 10 -3 14 -7 4 -5 24 -8 45 -8 108 0 133 152 27 167 -37 5 -50 -5 -55 -41 -6 -38 48 -65 61 -30 10 26 7 32 -14 27 -11 -3 -20 0 -20 6 0 13 29 14 48 3 7 -5 14 -22 16 -39 4 -26 -1 -33 -29 -49 -57 -30 -119 3 -140 74 -5 16 -2 22 9 22 20 0 20 5 2 33 -15 22 -14 22 31 25 25 1 50 5 56 9 6 4 25 8 41 10 16 2 40 10 53 18 13 9 23 13 23 9 0 -4 7 -1 15 6 8 7 15 9 15 5 0 -5 9 0 19 9 19 17 21 17 51 -14 17 -18 35 -43 41 -57 13 -34 33 -18 25 20 -7 35 -32 67 -53 67 -25 0 -13 21 20 35 59 25 198 159 228 222 l21 43 26 -29 c30 -32 60 -45 86 -35 19 7 12 24 -11 24 -8 0 -31 16 -50 35 -33 33 -34 37 -20 53 13 14 21 34 32 82 1 3 7 18 14 34 6 16 13 45 14 65 1 20 6 42 10 49 5 7 4 12 -2 12 -6 0 -11 5 -11 10 0 6 9 10 20 10 11 0 20 -4 20 -10 0 -5 7 -10 15 -10 8 0 15 7 15 16 0 11 5 14 18 9 9 -3 21 -7 27 -8 14 -3 41 -29 54 -54 27 -52 3 -105 -51 -111 -35 -4 -43 12 -13 26 14 7 25 18 25 25 0 23 -25 48 -45 45 -34 -6 -45 -18 -45 -53 0 -39 40 -75 85 -75 41 0 84 48 81 93 -1 23 3 37 11 37 6 0 14 9 18 19 7 22 -4 73 -14 67 -3 -2 -25 8 -47 24 -23 15 -57 31 -75 34 l-34 7 35 -18 c19 -9 37 -21 38 -25 2 -4 9 -8 16 -8 11 0 50 -39 51 -50 0 -3 3 -10 7 -16 8 -12 1 -24 -14 -24 -5 0 -7 4 -4 8 3 5 -12 23 -33 42 -34 31 -42 34 -93 31 -58 -2 -84 12 -57 33 8 6 13 18 11 27 -4 20 31 31 61 20 28 -11 73 8 88 36 7 13 16 23 21 23 5 0 6 5 3 10 -3 6 1 10 9 10 21 0 20 -8 -4 -47 -10 -18 -16 -35 -11 -37 11 -7 51 31 51 49 0 24 -12 45 -26 45 -9 0 -12 10 -9 36 4 29 0 41 -25 66 -25 25 -36 29 -65 25 -62 -8 -97 -76 -60 -114 19 -18 60 -11 69 13 8 21 -11 54 -31 54 -12 0 -14 3 -6 11 19 19 73 0 84 -29 19 -50 5 -83 -56 -129 -14 -11 -46 -12 -39 -2 3 5 -2 12 -11 16 -10 3 -20 1 -24 -5 -3 -6 -12 -12 -19 -14 -10 -2 -15 12 -17 47 -4 64 -13 106 -27 122 -6 7 -7 13 -2 13 4 0 3 5 -4 12 -7 7 -12 22 -12 35 0 13 -4 23 -9 23 -5 0 -11 7 -15 15 -7 20 31 64 72 82 40 17 33 34 -11 29 -21 -3 -41 -15 -59 -37 l-28 -33 -11 32 c-6 18 -15 32 -20 32 -5 0 -9 6 -9 14 0 22 -142 159 -194 186 -25 14 -46 28 -46 31 0 3 11 11 24 18 36 20 60 81 36 96 -5 3 -17 -9 -26 -27 -9 -18 -28 -43 -42 -55 -25 -23 -25 -23 -56 -4 -17 11 -40 21 -51 23 -11 1 -23 6 -26 11 -3 4 -20 9 -37 11 -17 3 -36 7 -41 11 -6 3 -27 6 -48 7 -21 1 -41 6 -45 12 -5 8 -8 7 -8 -1 0 -14 -30 -6 -43 11 -6 7 -7 5 -4 -5 4 -13 -1 -16 -19 -15 -21 1 -25 5 -21 24 2 12 1 22 -4 22 -4 0 -4 12 0 28 9 30 -7 62 -48 98 -15 13 -20 23 -13 27 5 4 24 -7 41 -24 28 -28 31 -29 31 -10 0 42 -54 74 -88 52z m35 -258 c6 -18 -98 -56 -160 -58 -40 -2 -57 1 -54 9 2 6 10 12 18 12 8 1 16 3 19 4 3 1 13 3 23 5 10 2 26 7 35 11 20 8 50 14 75 15 9 0 17 5 17 10 0 13 23 6 27 -8z m133 3 c0 -15 34 -45 80 -71 44 -24 200 -27 200 -3 0 10 108 -61 134 -88 98 -102 136 -144 136 -151 0 -5 9 -19 20 -31 12 -12 17 -22 13 -22 -4 0 -2 -4 6 -9 13 -8 13 -12 0 -27 -9 -11 -14 -40 -14 -83 1 -74 33 -148 73 -166 19 -8 22 -18 22 -62 0 -42 -4 -54 -20 -63 -55 -30 -93 -160 -68 -235 13 -38 12 -42 -17 -85 -16 -24 -40 -56 -52 -70 -13 -13 -23 -28 -23 -32 0 -5 -40 -40 -143 -124 -9 -8 -20 -14 -23 -14 -3 0 -12 -7 -21 -15 -11 -12 -19 -13 -28 -5 -7 6 -17 10 -21 9 -5 -1 -17 1 -27 6 -51 22 -203 -32 -214 -76 -3 -11 -13 -19 -22 -20 -64 -4 -78 0 -112 32 -49 47 -126 73 -192 66 -28 -4 -55 -11 -59 -15 -13 -13 -121 60 -178 118 -58 60 -82 89 -106 128 -10 18 -22 32 -26 32 -10 0 -5 67 5 77 14 13 6 84 -14 135 -18 47 -59 98 -77 98 -4 0 -7 23 -6 52 0 42 4 53 21 59 26 10 61 58 65 92 2 14 7 29 11 33 9 9 9 89 0 98 -10 10 -11 76 -1 76 4 0 8 7 8 15 0 8 4 15 9 15 5 0 12 8 15 18 10 31 137 155 196 192 30 19 56 38 58 41 1 4 22 0 45 -8 79 -28 201 7 235 67 15 26 22 29 64 28 31 0 48 -4 48 -12z m60 5 c0 -6 8 -10 18 -10 9 0 35 -5 57 -11 22 -6 47 -13 55 -15 8 -2 17 -4 20 -5 3 -1 11 -3 19 -4 8 0 16 -6 18 -12 4 -11 -117 -15 -127 -4 -3 3 -24 14 -47 24 -42 19 -49 26 -36 39 9 10 23 8 23 -2z m-775 -430 c-3 -5 -1 -12 4 -15 26 -16 -24 -193 -54 -193 -10 0 -11 5 -5 16 7 15 17 58 24 103 1 10 5 21 9 24 4 4 7 19 7 34 0 15 3 30 7 33 9 10 15 8 8 -2z m1349 -51 c3 -19 12 -57 20 -83 8 -27 12 -55 9 -63 -16 -42 -69 116 -58 174 8 41 19 30 29 -28z m-1369 -357 c10 -21 20 -45 22 -53 7 -34 10 -93 6 -111 -7 -27 -23 -13 -23 21 0 16 -5 32 -10 35 -6 4 -8 11 -4 16 3 5 1 15 -4 22 -5 7 -9 19 -9 27 0 8 -3 30 -7 48 -10 43 6 41 29 -5z m1410 29 c-10 -7 -13 -19 -18 -69 -1 -13 -5 -23 -8 -23 -3 0 -6 -6 -7 -12 -13 -100 -35 -139 -40 -71 -4 67 41 183 71 183 8 0 8 -3 2 -8z m-868 -588 c38 -14 71 -39 62 -48 -2 -3 -44 7 -94 21 -121 33 -117 32 -111 42 8 12 92 3 143 -15z m443 14 c0 -4 -4 -9 -10 -9 -13 -2 -16 -3 -70 -19 -41 -12 -62 -17 -97 -24 -7 -1 -16 -5 -19 -9 -4 -4 -13 -7 -20 -7 -22 0 -5 25 30 44 48 26 186 44 186 24z"/> <path d="M1100 2003 c0 -4 11 -20 24 -35 14 -14 22 -29 19 -32 -4 -3 -1 -6 5 -6 7 0 11 -3 11 -7 -1 -5 -1 -10 0 -13 1 -3 1 -181 2 -395 0 -267 -3 -400 -11 -420 -6 -17 -11 -32 -11 -35 0 -3 -12 -12 -27 -20 -25 -14 -17 -15 123 -20 83 -3 154 -3 159 -1 4 2 -4 14 -18 26 -14 12 -26 29 -26 38 0 9 -5 19 -10 22 -6 4 -8 11 -5 16 4 5 1 9 -4 9 -7 0 -11 51 -11 150 0 93 -4 150 -10 150 -15 0 -7 -308 9 -345 7 -16 12 -32 12 -35 -2 -9 -161 -8 -167 1 -3 6 -1 15 4 22 12 15 21 87 10 81 -7 -4 -6 626 1 756 0 13 -4 29 -9 34 -6 6 -10 16 -10 23 0 16 150 19 166 3 5 -5 53 -10 107 -11 53 -1 100 -5 103 -10 3 -5 9 -7 14 -4 4 3 13 -2 20 -10 7 -8 19 -15 27 -15 8 0 11 -4 8 -10 -3 -5 1 -10 9 -10 8 0 18 -9 21 -20 3 -11 11 -20 16 -20 6 0 8 -4 4 -9 -3 -5 0 -15 7 -23 18 -19 21 -34 20 -103 0 -96 -29 -152 -110 -217 -11 -9 -23 -14 -26 -11 -3 4 -6 2 -6 -4 0 -12 -13 -13 -120 -12 -78 0 -86 -1 -87 -19 -2 -22 21 -32 74 -32 27 0 32 -4 38 -30 4 -16 11 -30 16 -30 5 0 8 -3 8 -7 -1 -5 0 -11 1 -15 1 -5 3 -11 4 -15 9 -39 40 -113 47 -113 6 0 8 -4 4 -9 -3 -5 -1 -12 5 -16 6 -4 8 -11 5 -16 -4 -5 -2 -9 4 -9 6 0 8 -7 5 -15 -4 -8 -1 -15 5 -15 6 0 10 -4 8 -9 -3 -15 36 -71 51 -71 6 0 12 -4 12 -9 0 -9 20 -18 60 -29 39 -10 174 -6 177 5 2 6 -5 14 -16 18 -12 3 -21 12 -21 18 0 7 -14 26 -30 44 -17 18 -30 37 -30 42 0 6 -5 11 -11 11 -5 0 -8 4 -5 8 3 5 -6 27 -20 51 -13 24 -24 49 -24 56 0 8 -7 21 -16 29 -8 9 -12 16 -8 16 4 0 -1 9 -12 21 -10 12 -17 22 -15 23 8 3 -11 46 -20 46 -6 0 -7 5 -4 10 3 6 1 10 -5 10 -6 0 -8 5 -4 12 4 7 3 8 -4 4 -7 -4 -12 -12 -12 -19 0 -19 121 -259 161 -320 22 -32 39 -61 39 -64 0 -13 -128 6 -160 24 -37 21 -51 43 -101 168 -44 112 -59 146 -75 177 -18 34 -18 55 1 55 8 0 15 -4 15 -8 0 -14 75 13 123 44 36 24 55 47 79 94 28 57 30 69 26 135 -6 85 -32 145 -87 196 -33 30 -34 33 -11 26 25 -6 84 -34 129 -59 32 -18 79 -89 87 -132 10 -53 -1 -109 -33 -158 -22 -35 -44 -53 -100 -82 -40 -20 -73 -43 -73 -51 0 -12 3 -12 15 -2 8 7 15 9 15 6 0 -10 77 32 120 65 47 36 83 110 86 176 2 52 -13 113 -28 113 -4 0 -8 6 -8 14 0 12 -31 42 -86 85 -20 16 -54 32 -54 25 0 -3 -6 -1 -13 5 -8 6 -17 8 -20 4 -4 -3 -7 -2 -7 4 0 9 -6 11 -50 15 -11 1 -20 6 -20 10 0 8 14 8 -252 14 -120 3 -218 2 -218 -3z"/> <path d="M1300 1719 c0 -151 3 -228 10 -224 6 4 10 92 10 231 0 143 -4 224 -10 224 -6 0 -10 -84 -10 -231z"/> <path d="M1526 2465 c-9 -13 -16 -29 -16 -34 0 -5 -6 -12 -12 -14 -7 -3 -8 -6 -3 -6 6 -1 25 13 44 29 18 17 37 28 42 24 6 -3 -1 -16 -14 -28 -34 -31 -50 -64 -51 -105 -1 -36 17 -52 37 -32 9 10 8 15 -4 25 -15 10 -15 16 -4 43 19 44 57 67 101 60 49 -8 63 -22 59 -59 -5 -37 -5 -37 -35 -40 -13 -2 -25 3 -28 11 -3 10 0 12 13 8 25 -10 37 2 19 20 -13 13 -19 14 -40 3 -27 -15 -31 -44 -10 -66 18 -17 40 -18 69 -2 34 18 45 39 41 77 -4 48 -42 81 -93 81 -25 0 -41 5 -45 15 -9 24 -52 18 -70 -10z"/> <path d="M1153 2458 c-23 -6 -37 -19 -53 -52 -21 -44 -20 -96 3 -96 6 0 8 -3 4 -6 -3 -3 2 -15 12 -25 17 -19 34 -25 95 -36 l30 -6 -42 40 c-23 22 -39 43 -35 46 3 4 2 7 -4 7 -17 0 -7 89 12 110 23 25 18 29 -22 18z m-12 -142 c15 -16 10 -29 -6 -16 -9 8 -14 28 -13 54 1 40 1 40 5 6 3 -19 9 -39 14 -44z"/> <path d="M1770 2464 c0 -4 7 -15 16 -25 37 -41 13 -129 -47 -172 -24 -17 -23 -17 23 -13 47 4 96 36 102 67 2 8 7 22 11 33 4 10 4 21 -1 25 -5 3 -10 15 -12 26 -2 11 -11 28 -20 37 -18 18 -72 35 -72 22z m55 -73 c-3 -5 -1 -12 5 -16 14 -9 12 -51 -3 -63 -10 -9 -12 -1 -10 36 2 56 2 52 9 52 3 0 3 -4 -1 -9z"/> <path d="M977 2352 c-23 -25 -22 -85 1 -105 25 -23 35 -21 22 3 -16 30 -9 62 18 84 19 15 21 21 10 27 -20 13 -33 11 -51 -9z"/> <path d="M1938 2350 c13 -10 23 -21 22 -24 0 -4 0 -27 0 -52 l0 -47 20 26 c39 50 20 117 -33 117 l-32 -1 23 -19z"/> <path d="M923 2239 c-16 -16 -5 -39 19 -39 14 0 19 6 16 22 -4 25 -19 33 -35 17z"/> <path d="M1996 2233 c-6 -14 27 -36 38 -26 3 3 6 14 6 24 0 21 -37 22 -44 2z"/> <path d="M940 2173 c-14 -10 -20 -23 -18 -41 3 -27 28 -44 28 -19 0 18 49 51 73 50 16 -2 26 16 10 18 -57 6 -74 5 -93 -8z"/> <path d="M1917 2184 c-13 -14 -7 -19 25 -20 23 -1 40 -10 58 -33 15 -17 30 -28 33 -24 13 12 7 50 -10 65 -19 15 -94 24 -106 12z"/> <path d="M740 2051 c0 -24 25 -34 40 -16 15 18 5 35 -21 35 -12 0 -19 -7 -19 -19z"/> <path d="M818 2051 c-9 -10 -19 -28 -22 -39 -8 -23 9 -72 24 -72 6 0 9 4 6 9 -13 21 7 68 36 85 16 10 27 21 23 24 -14 15 -52 11 -67 -7z"/> <path d="M2077 2063 c-12 -11 -8 -23 7 -23 17 0 50 -49 49 -72 -2 -17 16 -37 18 -21 7 40 3 82 -9 101 -14 21 -51 30 -65 15z"/> <path d="M2170 2051 c0 -22 23 -34 38 -19 15 15 3 38 -19 38 -12 0 -19 -7 -19 -19z"/> <path d="M632 2010 c-6 -11 -12 -30 -12 -42 l1 -23 20 24 c15 19 29 24 60 23 23 -1 45 -4 50 -8 17 -10 9 5 -13 26 -29 27 -89 27 -106 0z"/> <path d="M2209 2004 l-24 -26 22 6 c47 15 85 10 102 -13 9 -12 20 -19 24 -15 25 25 -19 74 -66 74 -23 0 -41 -8 -58 -26z"/> <path d="M610 1900 c0 -5 -6 -7 -14 -4 -18 7 -76 -52 -76 -77 0 -24 12 -24 34 -1 14 16 66 22 96 11 3 -1 8 -1 13 0 4 0 7 -3 7 -9 0 -5 6 -10 13 -10 7 0 22 -15 32 -32 l20 -33 3 39 c2 24 -2 42 -10 47 -7 5 -9 9 -4 9 5 0 -5 13 -24 30 -18 16 -36 27 -41 25 -4 -3 -10 -1 -14 5 -8 13 -35 13 -35 0z m55 -32 c14 -6 25 -15 25 -20 0 -11 -9 -9 -55 12 -31 14 -35 19 -18 19 12 1 34 -4 48 -11z"/> <path d="M2281 1892 c-39 -19 -71 -72 -71 -117 l0 -30 40 43 c22 23 42 42 45 42 3 0 7 1 10 1 31 8 75 2 98 -14 l27 -18 0 24 c0 27 -32 61 -73 76 -36 14 -36 14 -76 -7z m59 -21 c-8 -6 -17 -8 -21 -5 -4 2 -10 0 -14 -6 -3 -5 -14 -10 -23 -10 -15 1 -15 2 2 15 11 8 31 15 45 15 20 0 23 -3 11 -9z"/> <path d="M505 1617 c-9 -22 9 -65 30 -74 23 -8 30 4 14 23 -8 9 -19 29 -25 43 -10 23 -12 24 -19 8z"/> <path d="M2458 1533 c-17 -19 -21 -56 -5 -46 5 3 14 -1 19 -8 7 -11 11 -11 15 -1 2 6 8 10 13 7 12 -8 110 15 110 26 0 5 -6 9 -12 10 -7 0 -22 3 -33 5 -11 3 -29 7 -40 9 -11 2 -27 6 -36 9 -9 4 -22 -1 -31 -11z"/> <path d="M417 1534 c-3 -3 -17 -7 -33 -10 -44 -8 -47 -20 -8 -27 10 -2 38 -9 61 -16 38 -10 44 -10 63 9 24 24 26 34 5 26 -8 -3 -14 0 -12 7 2 11 -66 21 -76 11z"/> <path d="M640 1531 c-8 -4 -26 -14 -40 -21 -14 -8 -41 -22 -60 -32 -19 -10 -34 -19 -32 -21 2 -1 0 -10 -3 -19 -4 -10 -4 -25 -1 -35 6 -14 8 -14 20 3 8 10 12 22 10 25 -5 9 64 69 80 69 7 0 21 9 31 20 19 21 19 23 -5 11z"/> <path d="M715 1240 c-25 -37 -50 -50 -100 -53 -27 -2 -46 3 -59 15 -11 10 -23 18 -28 18 -13 0 -9 -28 7 -44 8 -8 15 -19 15 -24 0 -28 119 -50 128 -24 2 7 8 12 14 12 11 0 43 30 31 30 -4 0 -2 4 5 9 15 9 29 91 16 91 -5 0 -18 -13 -29 -30z m-41 -85 c-22 -17 -54 -20 -54 -5 0 6 3 10 8 11 22 2 45 8 50 13 3 3 8 4 10 1 3 -3 -3 -12 -14 -20z"/> <path d="M2223 1227 c10 -119 154 -154 204 -50 17 37 13 51 -9 31 -34 -32 -128 -27 -153 9 -45 61 -46 62 -42 10z m105 -64 c12 -3 22 -9 22 -14 0 -15 -52 -1 -69 17 -15 15 -14 16 4 9 11 -4 30 -10 43 -12z"/> <path d="M804 1044 c-4 -22 -2 -45 7 -60 13 -25 50 -41 68 -29 16 9 13 25 -3 25 -21 0 -46 40 -46 72 0 40 -18 35 -26 -8z"/> <path d="M2135 1050 c1 -23 -5 -37 -27 -55 -15 -13 -28 -28 -28 -34 0 -17 46 -13 61 5 16 19 18 106 3 111 -6 2 -10 -9 -9 -27z"/> <path d="M626 1054 c-3 -8 1 -26 10 -40 19 -28 67 -33 102 -8 28 20 29 39 1 24 -26 -14 -63 -6 -88 19 -16 16 -20 17 -25 5z"/> <path d="M2323 1058 c-14 -25 -66 -40 -96 -29 -29 11 -36 1 -13 -18 19 -16 64 -24 92 -17 15 4 25 17 29 37 8 34 1 48 -12 27z"/> <path d="M747 976 c-3 -7 -1 -18 5 -24 15 -15 38 -3 38 19 0 22 -35 26 -43 5z"/> <path d="M2175 980 c-9 -15 14 -40 31 -33 22 8 18 43 -5 43 -11 0 -23 -5 -26 -10z"/> <path d="M926 913 c-13 -13 -5 -51 14 -68 11 -10 20 -15 20 -10 0 4 7 2 15 -5 12 -10 21 -10 45 0 37 15 39 28 4 28 -32 0 -74 21 -74 38 0 15 -15 26 -24 17z"/> <path d="M2010 911 c0 -22 -41 -51 -70 -51 -41 0 -38 -18 4 -25 49 -10 93 15 92 51 -1 25 -26 49 -26 25z"/> <path d="M921 806 c-9 -10 -8 -16 4 -26 19 -16 41 1 32 24 -8 20 -21 20 -36 2z"/> <path d="M1997 806 c-7 -18 1 -26 25 -26 11 0 18 7 18 20 0 23 -35 28 -43 6z"/> <path d="M975 764 c-17 -26 -18 -79 -2 -101 5 -7 23 -13 40 -13 l30 0 -24 26 c-19 20 -24 35 -22 70 1 24 0 44 -2 44 -1 0 -10 -12 -20 -26z"/> <path d="M1958 746 c3 -34 -1 -48 -18 -63 -19 -18 -19 -21 -4 -27 29 -11 64 20 64 57 0 31 -23 77 -38 77 -4 0 -6 -20 -4 -44z"/> <path d="M1720 770 c0 -5 4 -10 10 -10 13 0 64 -53 69 -71 10 -42 6 -77 -12 -102 -10 -16 -17 -30 -15 -32 7 -7 48 7 48 16 0 5 6 9 14 9 11 0 18 11 30 50 1 3 5 11 10 18 4 7 3 19 -3 26 -6 7 -8 16 -5 19 12 12 -24 54 -59 71 -39 18 -87 21 -87 6z m120 -90 c0 -16 -7 -30 -16 -34 -9 -4 -13 -2 -8 6 4 6 7 24 6 40 0 15 4 26 9 23 5 -4 9 -19 9 -35z"/> <path d="M1166 763 c-31 -8 -73 -53 -80 -84 -11 -56 38 -129 86 -129 17 0 17 2 -1 36 -11 19 -18 45 -16 57 8 51 15 70 32 83 60 43 61 43 28 43 -16 -1 -38 -3 -49 -6z m-16 -52 c0 -6 -4 -13 -10 -16 -5 -3 -11 -23 -11 -43 -2 -32 -3 -33 -6 -8 -6 35 4 76 17 76 6 0 10 -4 10 -9z"/> <path d="M1466 665 c2 -11 4 -26 4 -32 0 -7 5 -13 10 -13 6 0 10 9 10 20 0 11 -4 20 -9 20 -5 0 -11 6 -14 13 -2 6 -3 3 -1 -8z"/> <path d="M1500 598 c0 -16 46 -68 61 -68 16 0 39 12 39 21 0 5 -10 9 -22 9 -12 0 -35 12 -50 27 -20 19 -28 23 -28 11z"/> <path d="M1420 575 c-14 -7 -34 -17 -45 -20 -19 -7 -19 -7 3 -18 19 -9 27 -6 49 16 32 31 28 41 -7 22z"/> <path d="M1466 538 c-13 -42 -15 -85 -4 -119 11 -38 27 -52 29 -26 0 6 3 21 5 32 10 42 10 81 1 103 -11 24 -26 29 -31 10z"/> </g> </svg> 